Coordinates
version=1
nRows=8
nColumns=40
inDegrees=yes

Units are S.I. units (second, meters, Newtons, ...)
Angles are in degrees.

endheader
time	pelvis_tilt	pelvis_list	pelvis_rotation	pelvis_tx	pelvis_ty	pelvis_tz	hip_flexion_r	hip_adduction_r	hip_rotation_r	knee_angle_r	knee_angle_r_beta	ankle_angle_r	subtalar_angle_r	mtp_angle_r	hip_flexion_l	hip_adduction_l	hip_rotation_l	knee_angle_l	knee_angle_l_beta	ankle_angle_l	subtalar_angle_l	mtp_angle_l	lumbar_extension	lumbar_bending	lumbar_rotation	arm_flex_r	arm_add_r	arm_rot_r	elbow_flex_r	pro_sup_r	wrist_flex_r	wrist_dev_r	arm_flex_l	arm_add_l	arm_rot_l	elbow_flex_l	pro_sup_l	wrist_flex_l	wrist_dev_l
     55.50250000	     -3.31456524	     -4.25989190	      5.84867344	      1.09318455	      0.93235750	      0.48315251	      8.91882019	      2.69190841	    -13.94280553	     14.95219931	     14.95219931	     11.09055969	     -2.25598340	     -4.94921181	     32.47420217	     -9.93202255	      1.34764810	     38.29569865	     38.29569865	     10.63415539	    -16.99485424	     11.80741942	    -11.31310804	      5.00357794	      2.27252241	     21.64267865	    -20.85937215	     -0.01346732	     54.36869392	     45.37229368	      0.00000000	      0.00000000	      2.34977011	    -10.51887334	     -8.08186812	     35.05912247	     46.77960749	      0.00000000	      0.00000000
     55.51585714	     -3.48304095	     -4.10226601	      6.27991765	      1.09203231	      0.93211481	      0.48254991	      8.70885701	      2.51508172	    -14.14624725	     14.84208754	     14.84208754	     11.33777651	     -2.48089935	     -5.04179983	     32.61016938	     -9.23945027	      1.57719292	     34.60472952	     34.60472952	     10.45063801	    -15.82931274	     11.71218550	    -11.32317228	      4.77555571	      2.15481689	     22.51903498	    -20.85534789	     -0.02439374	     55.37100151	     45.34281089	      0.00000000	      0.00000000	      1.92778299	    -10.57121200	     -8.20221535	     34.33983618	     46.78294015	      0.00000000	      0.00000000
     55.52921429	     -3.65477045	     -3.97877292	      6.70543773	      1.09090542	      0.93173754	      0.48186724	      8.53471724	      2.35934429	    -14.33467896	     14.79601815	     14.79601815	     11.59352189	     -2.70569480	     -5.13731320	     32.72168247	     -8.58892239	      1.82187663	     31.10464080	     31.10464080	     10.35212895	    -14.37771905	     11.63122432	    -11.33543457	      4.56051994	      2.03213988	     23.34492750	    -20.81479940	     -0.02363692	     56.37313727	     45.31261064	      0.00000000	      0.00000000	      1.57475963	    -10.59031595	     -8.30104612	     33.67164538	     46.78590152	      0.00000000	      0.00000000
     55.54257143	     -3.70181896	     -3.93794084	      7.13454731	      1.08990647	      0.93132015	      0.48104224	      8.25785287	      2.27901160	    -14.63760924	     14.82548172	     14.82548172	     11.91883007	     -2.78181533	     -5.28724629	     32.60521834	     -8.05512493	      2.04742210	     27.63176296	     27.63176296	      9.00726729	    -13.18861397	      8.48824315	    -11.49570164	      4.51548297	      2.30097245	     23.24043059	    -21.38350781	      0.36320967	     59.57898644	     45.19850488	      0.00000000	      0.00000000	      2.25732757	    -10.31160881	     -9.40189677	     31.12423180	     46.90626173	      0.00000000	      0.00000000
     55.55592857	     -3.85901638	     -3.87828842	      7.53479429	      1.08887823	      0.93079048	      0.48014760	      8.11324959	      2.17696537	    -14.79319282	     14.86847168	     14.86847168	     12.20804437	     -3.06079424	     -5.36489223	     32.76183479	     -7.49393638	      2.26731158	     24.86805646	     24.86805646	      9.03857873	    -11.60526555	      8.76545444	    -11.48274243	      4.36655097	      2.20933595	     24.01210014	    -21.18154783	      0.24438855	     60.24711443	     45.18556425	      0.00000000	      0.00000000	      1.92826111	    -10.34210090	     -9.46259329	     30.81135873	     46.90511846	      0.00000000	      0.00000000
     55.56928571	     -3.92506083	     -3.81871341	      7.93072821	      1.08796751	      0.93032459	      0.47912283	      7.87315960	      2.07210775	    -14.98490067	     14.94617420	     14.94617420	     12.53675894	     -3.28382888	     -5.41279616	     32.85606937	     -6.98383222	      2.32296084	     22.55795306	     22.55795306	      9.10150386	    -10.02713198	      8.90877629	    -11.58286208	      4.24518877	      1.90416632	     24.80324475	    -20.78082247	      0.16481360	     61.34277494	     45.15777872	      0.00000000	      0.00000000	      1.64070096	    -10.42488544	     -9.57372627	     30.29516763	     46.90943197	      0.00000000	      0.00000000
     55.58264286	     -4.06215157	     -3.83636554	      8.27819487	      1.08715922	      0.92972953	      0.47801628	      7.69812641	      2.04016780	    -15.16619770	     14.98640642	     14.98640642	     12.83836333	     -3.45416547	     -5.45565629	     33.07787809	     -6.55887371	      2.36162571	     20.74508777	     20.74508777	      9.13548184	     -8.78842622	      9.06327048	    -11.53650898	      4.19927842	      1.82954662	     25.40408650	    -20.49658293	      0.15098851	     62.15853181	     45.13505473	      0.00000000	      0.00000000	      1.43401315	    -10.41047690	     -9.63005822	     29.95245621	     46.91032974	      0.00000000	      0.00000000
     55.59600000	     -4.08959533	     -3.84166022	      8.59699241	      1.08654451	      0.92924646	      0.47682494	      7.38056972	      2.00277148	    -15.37107206	     15.02628117	     15.02628117	     13.22363464	     -3.48014388	     -5.37852333	     33.22304171	     -6.19937265	      2.13430135	     19.47674938	     19.47674938	      9.18548806	     -7.67040676	      9.00282370	    -11.64421119	      4.14227948	      1.59573762	     25.86031970	    -20.05604451	      0.18603033	     63.71658597	     45.08869969	      0.00000000	      0.00000000	      1.30081645	    -10.43206434	     -9.82185304	     29.31843058	     46.92598234	      0.00000000	      0.00000000
